<svg width="80" height="64" viewBox="0 0 80 64" fill="none" xmlns="http://www.w3.org/2000/svg">
<path d="M44.1667 48.6666V6.99992C44.1667 4.69875 42.3012 2.83325 40 2.83325H6.66667C4.3655 2.83325 2.5 4.69875 2.5 6.99992V48.6666C2.5 50.9678 4.3655 52.8333 6.66667 52.8333H10.8333M44.1667 48.6666L10.8333 52.8333M44.1667 48.6666C43.5 49 37.5 49 37 50.4583L27.5 52.8333M44.1667 48.6666L27.5 52.8333M44.1667 48.6666V15.3333C44.1667 13.0321 46.0321 11.1666 48.3333 11.1666H59.1075C60.2125 11.1666 61.2725 11.6056 62.0537 12.387L76.2796 26.6128C77.0608 27.3941 77.5 28.4541 77.5 29.5591V48.6666C77.5 50.9678 75.6346 52.8333 73.3333 52.8333H69.1667M44.1667 48.6666L69.1667 52.8333M44.1667 48.6666C44 49 46.2824 49.3771 48.3333 50.6526L52.5 52.8333M44.1667 48.6666L48.3333 50.4583L52.5 52.8333M10.8333 52.8333C10.8333 57.4358 14.5643 61.1666 19.1667 61.1666C23.769 61.1666 27.5 57.4358 27.5 52.8333M10.8333 52.8333H27.5M10.8333 52.8333C10.8333 48.2308 14.5643 44.4999 19.1667 44.4999C23.769 44.4999 27.5 48.2308 27.5 52.8333M69.1667 52.8333C69.1667 57.4358 65.4358 61.1666 60.8333 61.1666C56.2308 61.1666 52.5 57.4358 52.5 52.8333M69.1667 52.8333H52.5M69.1667 52.8333C69.1667 48.2308 65.4358 44.4999 60.8333 44.4999C56.2308 44.4999 52.5 48.2308 52.5 52.8333" stroke="#3C4657" stroke-width="4" stroke-linecap="round" stroke-linejoin="round"/>
</svg>
