<svg width="80" height="80" viewBox="0 0 80 80" fill="none" xmlns="http://www.w3.org/2000/svg">
<path d="M33.0192 7.98878C34.7958 0.670406 45.2042 0.670406 46.9808 7.98878C48.1283 12.7164 53.5446 14.9599 57.6992 12.4285C64.1304 8.50995 71.49 15.8696 67.5717 22.3007C65.04 26.4552 67.2837 31.8717 72.0112 33.0192C79.3296 34.7958 79.3296 45.2042 72.0112 46.9808C67.2837 48.1283 65.04 53.5446 67.5717 57.6992C71.49 64.1304 64.1304 71.49 57.6992 67.5717C53.5446 65.04 48.1283 67.2837 46.9808 72.0112C45.2042 79.3296 34.7958 79.3296 33.0192 72.0112C31.8717 67.2837 26.4552 65.04 22.3008 67.5717C15.8696 71.49 8.50995 64.1304 12.4285 57.6992C14.9599 53.5446 12.7164 48.1283 7.98878 46.9808C0.670406 45.2042 0.670406 34.7958 7.98878 33.0192C12.7164 31.8717 14.9599 26.4552 12.4285 22.3007C8.50995 15.8696 15.8696 8.50995 22.3008 12.4285C26.4552 14.9599 31.8717 12.7164 33.0192 7.98878Z" stroke="#3C4657" stroke-width="4" stroke-linecap="round" stroke-linejoin="round"/>
<path d="M52.5 40C52.5 46.9037 46.9037 52.5 40 52.5C33.0962 52.5 27.5 46.9037 27.5 40C27.5 33.0962 33.0962 27.5 40 27.5C46.9037 27.5 52.5 33.0962 52.5 40Z" stroke="#3C4657" stroke-width="4" stroke-linecap="round" stroke-linejoin="round"/>
</svg>
