<svg width="64" height="80" viewBox="0 0 64 80" fill="none" xmlns="http://www.w3.org/2000/svg">
<path d="M19.5002 48.3333L27.8335 56.6667L44.5002 40M19.5002 10.8333H11.1668C6.56446 10.8333 2.8335 14.5643 2.8335 19.1667V69.1667C2.8335 73.7692 6.56446 77.5 11.1668 77.5H52.8335C57.436 77.5 61.1668 73.7692 61.1668 69.1667V19.1667C61.1668 14.5643 57.436 10.8333 52.8335 10.8333H44.5002H19.5002ZM19.5002 10.8333C19.5002 15.4357 23.2311 19.1667 27.8335 19.1667H36.1668C40.7693 19.1667 44.5002 15.4357 44.5002 10.8333H19.5002ZM19.5002 10.8333C19.5002 6.23096 23.2311 2.5 27.8335 2.5H36.1668C40.7693 2.5 44.5002 6.23096 44.5002 10.8333H19.5002Z" stroke="#3C4657" stroke-width="4" stroke-linecap="round" stroke-linejoin="round"/>
</svg>
