<svg width="64" height="80" viewBox="0 0 64 80" fill="none" xmlns="http://www.w3.org/2000/svg">
<path d="M19.5002 48.3333L44.5002 23.3333L19.5002 48.3333ZM21.5836 25.4167H21.6253H21.5836ZM42.4168 46.25H42.4585H42.4168ZM61.1668 77.5V10.8333C61.1668 6.23096 57.436 2.5 52.8335 2.5H11.1668C6.56446 2.5 2.8335 6.23096 2.8335 10.8333V77.5L17.4168 69.1667L32.0002 77.5L46.5835 69.1667L61.1668 77.5ZM23.6668 25.4167C23.6668 26.5672 22.7341 27.5 21.5835 27.5C20.4329 27.5 19.5002 26.5672 19.5002 25.4167C19.5002 24.2661 20.4329 23.3333 21.5835 23.3333C22.7341 23.3333 23.6668 24.2661 23.6668 25.4167ZM44.5002 46.25C44.5002 47.4004 43.5673 48.3333 42.4168 48.3333C41.2664 48.3333 40.3335 47.4004 40.3335 46.25C40.3335 45.0996 41.2664 44.1667 42.4168 44.1667C43.5673 44.1667 44.5002 45.0996 44.5002 46.25Z" stroke="#3C4657" stroke-width="4" stroke-linecap="round" stroke-linejoin="round"/>
</svg>
