<svg width="80" height="79" viewBox="0 0 80 79" fill="none" xmlns="http://www.w3.org/2000/svg">
<path d="M71.9763 30.125V8.25C71.9763 4.79822 69.5779 2 66.6192 2L7.69064 2C4.73198 2 2.3335 4.79822 2.3335 8.25L2.3335 70.75C2.3335 74.2018 4.73197 77 7.69064 77L66.6192 77C69.5779 77 71.9763 74.2018 71.9763 70.75V48.875M76.9622 27H50.5478C44.6304 27 39.8335 32.5964 39.8335 39.5C39.8335 46.4036 44.6304 52 50.5478 52H76.9622C77.1673 52 77.3335 51.8061 77.3335 51.5668V27.4332C77.3335 27.1939 77.1673 27 76.9622 27Z" stroke="#3C4657" stroke-width="4"/>
</svg>
