<svg width="24" height="24" viewBox="0 0 24 24" fill="none" xmlns="http://www.w3.org/2000/svg">
<path d="M0.799805 0.800049L1.7598 4.00005M1.7598 4.00005L5.5998 16.8H23.1998V7.20005C23.1998 5.43274 21.7671 4.00005 19.9998 4.00005H1.7598ZM19.9998 23.2C19.1161 23.2 18.3998 22.4837 18.3998 21.6C18.3998 20.7164 19.1161 20 19.9998 20C20.8835 20 21.5998 20.7164 21.5998 21.6C21.5998 22.4837 20.8835 23.2 19.9998 23.2ZM7.1998 21.6C7.1998 20.7164 7.91615 20 8.7998 20C9.68346 20 10.3998 20.7164 10.3998 21.6C10.3998 22.4837 9.68346 23.2 8.7998 23.2C7.91615 23.2 7.1998 22.4837 7.1998 21.6Z" stroke="#3C4657" stroke-width="1.5"/>
</svg>
