<svg width="40" height="40" viewBox="0 0 40 40" fill="none" xmlns="http://www.w3.org/2000/svg">
<path d="M20.0002 20H19.2502C19.2502 20.199 19.3292 20.3897 19.4698 20.5304L20.0002 20ZM20.0002 37.9167C10.1051 37.9167 2.0835 29.8951 2.0835 20H0.583496C0.583496 30.7236 9.27663 39.4167 20.0002 39.4167V37.9167ZM37.9168 20C37.9168 29.8951 29.8953 37.9167 20.0002 37.9167V39.4167C30.7237 39.4167 39.4168 30.7236 39.4168 20H37.9168ZM20.0002 2.08337C29.8953 2.08337 37.9168 10.1049 37.9168 20H39.4168C39.4168 9.27651 30.7237 0.583374 20.0002 0.583374V2.08337ZM20.0002 0.583374C9.27663 0.583374 0.583496 9.27651 0.583496 20H2.0835C2.0835 10.1049 10.1051 2.08337 20.0002 2.08337V0.583374ZM19.2502 8.00004V20H20.7502V8.00004H19.2502ZM19.4698 20.5304L27.4698 28.5304L28.5305 27.4697L20.5305 19.4697L19.4698 20.5304Z" fill="#3C4657"/>
</svg>
