<svg width="40" height="40" viewBox="0 0 40 40" fill="none" xmlns="http://www.w3.org/2000/svg">
<path d="M12.5843 1.33313H6.66634C3.72082 1.33313 1.33301 3.72094 1.33301 6.66646V11.9998C1.33301 26.7274 13.2721 38.6665 27.9997 38.6665H33.333C36.2785 38.6665 38.6663 36.2786 38.6663 33.3331V29.6479C38.6663 28.6378 38.0957 27.7145 37.1922 27.2627L30.7498 24.0415C29.2983 23.3158 27.5405 24.0438 27.0274 25.5834L26.2333 27.9655C25.719 29.5085 24.1361 30.4271 22.5412 30.1081C16.1578 28.8314 11.1681 23.8417 9.89136 17.4582C9.57238 15.8633 10.4909 14.2805 12.034 13.7661L14.9903 12.7807C16.3122 12.3401 17.072 10.9559 16.7341 9.60411L15.1713 3.35303C14.8745 2.16592 13.8079 1.33313 12.5843 1.33313Z" stroke="#3C4657" stroke-width="1.5"/>
</svg>
