<svg width="22" height="21" viewBox="0 0 22 21" fill="none" xmlns="http://www.w3.org/2000/svg">
<path d="M1.6665 0.666748L2.4665 3.33341M2.4665 3.33341L5.6665 14.0001H20.3332V6.00008C20.3332 4.52732 19.1393 3.33341 17.6665 3.33341H2.4665ZM17.6665 19.3334C16.9301 19.3334 16.3332 18.7365 16.3332 18.0001C16.3332 17.2637 16.9301 16.6667 17.6665 16.6667C18.4029 16.6667 18.9998 17.2637 18.9998 18.0001C18.9998 18.7365 18.4029 19.3334 17.6665 19.3334ZM6.99984 18.0001C6.99984 17.2637 7.59679 16.6667 8.33317 16.6667C9.06955 16.6667 9.6665 17.2637 9.6665 18.0001C9.6665 18.7365 9.06955 19.3334 8.33317 19.3334C7.59679 19.3334 6.99984 18.7365 6.99984 18.0001Z" stroke="white" stroke-width="1.5"/>
</svg>
