<svg width="16" height="15" viewBox="0 0 16 15" fill="none" xmlns="http://www.w3.org/2000/svg">
<path d="M1.4668 0.466675L2.0268 2.33334M2.0268 2.33334L4.2668 9.80001H14.5335V4.20001C14.5335 3.16908 13.6977 2.33334 12.6668 2.33334H2.0268ZM12.6668 13.5333C12.1513 13.5333 11.7335 13.1155 11.7335 12.6C11.7335 12.0845 12.1513 11.6667 12.6668 11.6667C13.1823 11.6667 13.6001 12.0845 13.6001 12.6C13.6001 13.1155 13.1823 13.5333 12.6668 13.5333ZM5.20013 12.6C5.20013 12.0845 5.618 11.6667 6.13346 11.6667C6.64893 11.6667 7.0668 12.0845 7.0668 12.6C7.0668 13.1155 6.64893 13.5333 6.13346 13.5333C5.618 13.5333 5.20013 13.1155 5.20013 12.6Z" stroke="white" stroke-width="1.5"/>
</svg>
