<svg width="15" height="15" viewBox="0 0 15 15" fill="none" xmlns="http://www.w3.org/2000/svg">
<path d="M8.66 6.19687L9.84221 5.01466C9.25258 4.4873 8.47416 4.16667 7.62085 4.16667C5.7799 4.16667 4.28752 5.65905 4.28752 7.5C4.28752 9.34095 5.7799 10.8333 7.62085 10.8333C8.54691 10.8333 9.38478 10.4557 9.98884 9.84601L8.89498 8.75215L8.72048 8.75246C8.42703 9.01031 8.0422 9.16667 7.62085 9.16667C6.70038 9.16667 5.95418 8.42047 5.95418 7.5C5.95418 6.57953 6.70038 5.83333 7.62085 5.83333C8.01384 5.83333 8.37506 5.96935 8.66 6.19687Z" fill="#FAF8F2"/>
<path fill-rule="evenodd" clip-rule="evenodd" d="M7.5 0C11.6421 0 15 3.35786 15 7.5C15 11.6421 11.6421 15 7.5 15C3.35786 15 0 11.6421 0 7.5C0 3.35786 3.35786 0 7.5 0ZM7.5 1.66667C10.7217 1.66667 13.3333 4.27834 13.3333 7.5C13.3333 10.7217 10.7217 13.3333 7.5 13.3333C4.27834 13.3333 1.66667 10.7217 1.66667 7.5C1.66667 4.27834 4.27834 1.66667 7.5 1.66667Z" fill="#FAF8F2"/>
</svg>
