<svg width="147" height="73" viewBox="0 0 147 73" fill="none" xmlns="http://www.w3.org/2000/svg">
<g filter="url(#filter0_d)">
<path d="M20.128 30.72H26.464V32.112L24.448 32.616V46.104L26.464 46.608V48H19.576V46.608L21.328 46.104V32.64L16.96 48H13.552L9.28 32.64V46.104L11.032 46.608V48H4.984V46.608L7 46.104V32.616L4.984 32.112V30.72H11.416L15.568 45.456H15.664L20.128 30.72ZM39.5335 42.288L39.1255 40.032H35.8375V46.2H42.4375L43.1095 42.648H45.2215V48H30.4615V46.608L32.7175 46.104V32.616L30.4615 32.112V30.72H44.6935V35.808H42.7255L42.0295 32.472H35.8375V38.232H39.1255L39.5335 35.952H41.4775V42.288H39.5335ZM54.7553 46.2H60.5633L61.3793 42.048H63.4193V48H49.3793V46.608L51.6353 46.104V32.616L49.3793 32.112V30.72H57.2513V32.112L54.7553 32.616V46.2ZM75.1921 32.136C74.5841 32.136 74.0001 32.264 73.4401 32.52C72.8961 32.776 72.4561 33.144 72.1201 33.624C71.6881 34.248 71.3201 35.024 71.0161 35.952C70.7281 36.88 70.5841 37.92 70.5841 39.072C70.5841 40.224 70.7041 41.296 70.9441 42.288C71.1841 43.264 71.5201 44.088 71.9521 44.76C72.3041 45.32 72.7761 45.728 73.3681 45.984C73.9601 46.224 74.6401 46.344 75.4081 46.344C78.0961 46.344 79.6721 44.992 80.1361 42.288H82.1761C81.7761 44.304 80.9761 45.8 79.7761 46.776C78.5921 47.752 76.9601 48.24 74.8801 48.24C72.6721 48.24 70.9121 47.6 69.6001 46.32C68.8161 45.552 68.2161 44.592 67.8001 43.44C67.3841 42.272 67.1761 40.968 67.1761 39.528C67.1761 37.912 67.4401 36.456 67.9681 35.16C68.4961 33.848 69.2401 32.792 70.2001 31.992C71.4161 30.984 73.0241 30.48 75.0241 30.48C75.5201 30.48 75.9601 30.512 76.3441 30.576C76.7441 30.624 77.1121 30.72 77.4481 30.864C77.7841 30.992 78.0961 31.168 78.3841 31.392C78.6881 31.616 78.9921 31.896 79.2961 32.232L79.7761 30.72H81.8161V36.384H79.6321C79.4081 34.976 78.9041 33.92 78.1201 33.216C77.3521 32.496 76.3761 32.136 75.1921 32.136ZM96.1979 42.384H90.3419L89.0939 46.104L91.0859 46.608V48H84.7499V46.608L86.7179 46.104L92.3339 30.48H95.2859L100.854 46.104L102.774 46.608V48H95.4539V46.608L97.4219 46.104L96.1979 42.384ZM90.9419 40.632H95.6219L93.3899 33.648H93.2939L90.9419 40.632ZM118.267 38.832C117.979 39.056 117.651 39.272 117.283 39.48C116.931 39.688 116.475 39.856 115.915 39.984C115.995 40.064 116.115 40.208 116.275 40.416C116.451 40.608 116.627 40.84 116.803 41.112L119.779 46.152L121.915 46.608V48H116.251V46.608L113.107 40.44H110.803V46.104L113.083 46.608V48H105.667V46.608L107.683 46.104V32.616L105.667 32.112V30.72H114.643C115.411 30.72 116.083 30.792 116.659 30.936C117.235 31.08 117.755 31.312 118.219 31.632C118.795 32.048 119.251 32.584 119.587 33.24C119.923 33.896 120.091 34.56 120.091 35.232C120.091 35.904 119.923 36.568 119.587 37.224C119.267 37.864 118.827 38.4 118.267 38.832ZM113.515 38.688C114.395 38.688 115.123 38.44 115.699 37.944C116.019 37.672 116.267 37.312 116.443 36.864C116.635 36.4 116.731 35.904 116.731 35.376C116.731 34.896 116.635 34.464 116.443 34.08C116.251 33.696 115.995 33.368 115.675 33.096C115.147 32.68 114.395 32.472 113.419 32.472H110.803V38.688H113.515ZM133.166 46.2C134.03 46.2 134.766 46.072 135.374 45.816C135.982 45.544 136.494 45.144 136.91 44.616C137.342 44.072 137.67 43.384 137.894 42.552C138.118 41.704 138.23 40.688 138.23 39.504C138.23 37.232 137.79 35.496 136.91 34.296C136.478 33.704 135.934 33.264 135.278 32.976C134.638 32.672 133.854 32.52 132.926 32.52H130.166V46.2H133.166ZM133.814 30.72C136.198 30.72 138.054 31.392 139.382 32.736C140.134 33.504 140.71 34.448 141.11 35.568C141.51 36.688 141.71 37.888 141.71 39.168C141.71 40.528 141.502 41.792 141.086 42.96C140.67 44.128 140.078 45.112 139.31 45.912C138.638 46.632 137.838 47.16 136.91 47.496C135.982 47.832 134.878 48 133.598 48H125.03V46.608L127.046 46.104V32.616L125.03 32.112V30.72H133.814Z" fill="#FAF8F2"/>
</g>
<g filter="url(#filter1_d)">
<path d="M74.44 7.6H79.72V8.76L78.04 9.18V20.42L79.72 20.84V22H73.98V20.84L75.44 20.42V9.2L71.8 22H68.96L65.4 9.2V20.42L66.86 20.84V22H61.82V20.84L63.5 20.42V9.18L61.82 8.76V7.6H67.18L70.64 19.88H70.72L74.44 7.6Z" fill="#E1441E"/>
</g>
<path d="M77.44 7.6H82.72V8.76L81.04 9.18V20.42L82.72 20.84V22H76.98V20.84L78.44 20.42V9.2L74.8 22H71.96L68.4 9.2V20.42L69.86 20.84V22H64.82V20.84L66.5 20.42V9.18L64.82 8.76V7.6H70.18L73.64 19.88H73.72L77.44 7.6Z" fill="#E1441E"/>
<g filter="url(#filter2_d)">
<path d="M25.6875 57.1094H23.9141V62H22.9336V57.1094H21.1758V56.3125H25.6875V57.1094ZM26.9175 62V56.3125H28.8667C29.5099 56.3125 29.9995 56.4414 30.3355 56.6992C30.6714 56.957 30.8394 57.3411 30.8394 57.8516C30.8394 58.112 30.7691 58.3464 30.6284 58.5547C30.4878 58.763 30.2821 58.9245 30.0113 59.0391C30.3185 59.1224 30.5555 59.2799 30.7222 59.5117C30.8915 59.7409 30.9761 60.0169 30.9761 60.3398C30.9761 60.8737 30.8042 61.2839 30.4605 61.5703C30.1193 61.8568 29.6297 62 28.9917 62H26.9175ZM27.9058 59.4336V61.2109H29.0034C29.3133 61.2109 29.5555 61.1341 29.73 60.9805C29.9045 60.8268 29.9917 60.6133 29.9917 60.3398C29.9917 59.7487 29.6896 59.4466 29.0855 59.4336H27.9058ZM27.9058 58.707H28.8745C29.1818 58.707 29.4214 58.638 29.5933 58.5C29.7678 58.3594 29.855 58.1615 29.855 57.9062C29.855 57.625 29.7743 57.4219 29.6128 57.2969C29.454 57.1719 29.2053 57.1094 28.8667 57.1094H27.9058V58.707ZM36.9834 59.3047C36.9834 59.862 36.8871 60.3516 36.6944 60.7734C36.5017 61.1927 36.2256 61.5156 35.8663 61.7422C35.5095 61.9661 35.098 62.0781 34.6319 62.0781C34.1709 62.0781 33.7595 61.9661 33.3975 61.7422C33.0381 61.5156 32.7595 61.194 32.5616 60.7773C32.3663 60.3607 32.2673 59.8802 32.2647 59.3359V59.0156C32.2647 58.4609 32.3623 57.9714 32.5577 57.5469C32.7556 57.1224 33.0329 56.7982 33.3897 56.5742C33.7491 56.3477 34.1605 56.2344 34.6241 56.2344C35.0876 56.2344 35.4978 56.3464 35.8545 56.5703C36.2139 56.7917 36.4913 57.112 36.6866 57.5312C36.8819 57.9479 36.9808 58.4336 36.9834 58.9883V59.3047ZM35.9952 59.0078C35.9952 58.3776 35.8754 57.8945 35.6358 57.5586C35.3988 57.2227 35.0616 57.0547 34.6241 57.0547C34.197 57.0547 33.8623 57.2227 33.6202 57.5586C33.3806 57.8919 33.2582 58.3646 33.253 58.9766V59.3047C33.253 59.9297 33.3741 60.4128 33.6163 60.7539C33.861 61.0951 34.1996 61.2656 34.6319 61.2656C35.0694 61.2656 35.4053 61.099 35.6397 60.7656C35.8767 60.4323 35.9952 59.9453 35.9952 59.3047V59.0078ZM41.2525 62V59.875H40.1509L39.0533 62H37.9947L39.2642 59.582C38.6028 59.2695 38.272 58.7578 38.272 58.0469C38.272 57.5026 38.4504 57.0794 38.8072 56.7773C39.1666 56.4727 39.6666 56.3177 40.3072 56.3125H42.2408V62H41.2525ZM39.2564 58.0898C39.2564 58.4102 39.3463 58.6602 39.5259 58.8398C39.7056 59.0195 39.9752 59.1094 40.3345 59.1094H41.2525V57.1094H40.3345C39.9699 57.1094 39.6991 57.1966 39.522 57.3711C39.3449 57.5456 39.2564 57.7852 39.2564 58.0898ZM50.7086 60.1484C50.6513 60.7552 50.4273 61.2292 50.0367 61.5703C49.6461 61.9089 49.1266 62.0781 48.4781 62.0781C48.025 62.0781 47.6253 61.9714 47.2789 61.7578C46.9352 61.5417 46.6695 61.2357 46.482 60.8398C46.2945 60.444 46.1969 59.9844 46.1891 59.4609V58.9297C46.1891 58.3932 46.2841 57.9206 46.4742 57.5117C46.6643 57.1029 46.9365 56.7878 47.2906 56.5664C47.6474 56.3451 48.0589 56.2344 48.525 56.2344C49.1526 56.2344 49.6578 56.4049 50.0406 56.7461C50.4234 57.0872 50.6461 57.569 50.7086 58.1914H49.7242C49.6773 57.7826 49.5576 57.4883 49.3648 57.3086C49.1747 57.1263 48.8948 57.0352 48.525 57.0352C48.0953 57.0352 47.7646 57.1927 47.5328 57.5078C47.3036 57.8203 47.1865 58.2799 47.1812 58.8867V59.3906C47.1812 60.0052 47.2906 60.474 47.5094 60.7969C47.7307 61.1198 48.0536 61.2812 48.4781 61.2812C48.8661 61.2812 49.1578 61.194 49.3531 61.0195C49.5484 60.8451 49.6721 60.5547 49.7242 60.1484H50.7086ZM52.0753 62V56.3125H54.0245C54.6678 56.3125 55.1573 56.4414 55.4933 56.6992C55.8292 56.957 55.9972 57.3411 55.9972 57.8516C55.9972 58.112 55.9269 58.3464 55.7862 58.5547C55.6456 58.763 55.4399 58.9245 55.1691 59.0391C55.4764 59.1224 55.7133 59.2799 55.88 59.5117C56.0493 59.7409 56.1339 60.0169 56.1339 60.3398C56.1339 60.8737 55.962 61.2839 55.6183 61.5703C55.2771 61.8568 54.7876 62 54.1495 62H52.0753ZM53.0636 59.4336V61.2109H54.1612C54.4711 61.2109 54.7133 61.1341 54.8878 60.9805C55.0623 60.8268 55.1495 60.6133 55.1495 60.3398C55.1495 59.7487 54.8474 59.4466 54.2433 59.4336H53.0636ZM53.0636 58.707H54.0323C54.3396 58.707 54.5792 58.638 54.7511 58.5C54.9256 58.3594 55.0128 58.1615 55.0128 57.9062C55.0128 57.625 54.9321 57.4219 54.7706 57.2969C54.6118 57.1719 54.3631 57.1094 54.0245 57.1094H53.0636V58.707ZM62.1413 59.3047C62.1413 59.862 62.0449 60.3516 61.8522 60.7734C61.6595 61.1927 61.3834 61.5156 61.0241 61.7422C60.6673 61.9661 60.2558 62.0781 59.7897 62.0781C59.3288 62.0781 58.9173 61.9661 58.5553 61.7422C58.1959 61.5156 57.9173 61.194 57.7194 60.7773C57.5241 60.3607 57.4251 59.8802 57.4225 59.3359V59.0156C57.4225 58.4609 57.5202 57.9714 57.7155 57.5469C57.9134 57.1224 58.1907 56.7982 58.5475 56.5742C58.9069 56.3477 59.3183 56.2344 59.7819 56.2344C60.2454 56.2344 60.6556 56.3464 61.0123 56.5703C61.3717 56.7917 61.6491 57.112 61.8444 57.5312C62.0397 57.9479 62.1386 58.4336 62.1413 58.9883V59.3047ZM61.153 59.0078C61.153 58.3776 61.0332 57.8945 60.7936 57.5586C60.5566 57.2227 60.2194 57.0547 59.7819 57.0547C59.3548 57.0547 59.0202 57.2227 58.778 57.5586C58.5384 57.8919 58.416 58.3646 58.4108 58.9766V59.3047C58.4108 59.9297 58.5319 60.4128 58.7741 60.7539C59.0189 61.0951 59.3574 61.2656 59.7897 61.2656C60.2272 61.2656 60.5631 61.099 60.7975 60.7656C61.0345 60.4323 61.153 59.9453 61.153 59.3047V59.0078ZM67.1994 57.1094H64.5783V58.4883H65.7423C66.159 58.4883 66.5223 58.5599 66.8322 58.7031C67.1421 58.8464 67.3778 59.0495 67.5392 59.3125C67.7007 59.5755 67.7814 59.8802 67.7814 60.2266C67.7814 60.7578 67.6004 61.1849 67.2384 61.5078C66.8791 61.8307 66.3882 61.9948 65.7658 62H63.59V56.3125H67.1994V57.1094ZM64.5783 59.2812V61.2109H65.7384C66.0718 61.2109 66.3309 61.1211 66.5158 60.9414C66.7033 60.7591 66.797 60.5182 66.797 60.2188C66.797 59.9323 66.7059 59.7057 66.5236 59.5391C66.3413 59.3724 66.0887 59.2865 65.7658 59.2812H64.5783ZM73.6559 59.3047C73.6559 59.862 73.5596 60.3516 73.3669 60.7734C73.1742 61.1927 72.8981 61.5156 72.5387 61.7422C72.182 61.9661 71.7705 62.0781 71.3044 62.0781C70.8434 62.0781 70.432 61.9661 70.07 61.7422C69.7106 61.5156 69.432 61.194 69.2341 60.7773C69.0387 60.3607 68.9398 59.8802 68.9372 59.3359V59.0156C68.9372 58.4609 69.0348 57.9714 69.2302 57.5469C69.4281 57.1224 69.7054 56.7982 70.0622 56.5742C70.4216 56.3477 70.833 56.2344 71.2966 56.2344C71.7601 56.2344 72.1703 56.3464 72.527 56.5703C72.8864 56.7917 73.1637 57.112 73.3591 57.5312C73.5544 57.9479 73.6533 58.4336 73.6559 58.9883V59.3047ZM72.6677 59.0078C72.6677 58.3776 72.5479 57.8945 72.3083 57.5586C72.0713 57.2227 71.7341 57.0547 71.2966 57.0547C70.8695 57.0547 70.5348 57.2227 70.2927 57.5586C70.0531 57.8919 69.9307 58.3646 69.9255 58.9766V59.3047C69.9255 59.9297 70.0466 60.4128 70.2887 60.7539C70.5335 61.0951 70.8721 61.2656 71.3044 61.2656C71.7419 61.2656 72.0778 61.099 72.3122 60.7656C72.5492 60.4323 72.6677 59.9453 72.6677 59.3047V59.0078ZM80.218 63.3984H79.2805V62H75.5344V63.3984H74.5812L74.55 61.2109H75.007C75.2336 60.9922 75.4146 60.6745 75.55 60.2578C75.6854 59.8385 75.7727 59.3646 75.8117 58.8359L75.9602 56.3125H79.5461V61.2109H80.2687L80.218 63.3984ZM76.1242 61.2109H78.5617V57.1094H76.9016L76.8078 58.7109C76.7375 59.7812 76.5096 60.6146 76.1242 61.2109ZM84.737 60.6758H82.5339L82.073 62H81.0456L83.1941 56.3125H84.0808L86.2331 62H85.2019L84.737 60.6758ZM82.8112 59.8789H84.4597L83.6355 57.5195L82.8112 59.8789ZM89.8337 62V56.3125H91.783C92.4262 56.3125 92.9158 56.4414 93.2517 56.6992C93.5877 56.957 93.7556 57.3411 93.7556 57.8516C93.7556 58.112 93.6853 58.3464 93.5447 58.5547C93.4041 58.763 93.1983 58.9245 92.9275 59.0391C93.2348 59.1224 93.4718 59.2799 93.6384 59.5117C93.8077 59.7409 93.8923 60.0169 93.8923 60.3398C93.8923 60.8737 93.7205 61.2839 93.3767 61.5703C93.0356 61.8568 92.546 62 91.908 62H89.8337ZM90.822 59.4336V61.2109H91.9197C92.2296 61.2109 92.4718 61.1341 92.6462 60.9805C92.8207 60.8268 92.908 60.6133 92.908 60.3398C92.908 59.7487 92.6059 59.4466 92.0017 59.4336H90.822ZM90.822 58.707H91.7908C92.0981 58.707 92.3377 58.638 92.5095 58.5C92.684 58.3594 92.7712 58.1615 92.7712 57.9062C92.7712 57.625 92.6905 57.4219 92.5291 57.2969C92.3702 57.1719 92.1215 57.1094 91.783 57.1094H90.822V58.707ZM96.3763 58.4883H97.5403C97.957 58.4883 98.3203 58.5599 98.6302 58.7031C98.9401 58.8464 99.1757 59.0495 99.3372 59.3125C99.4986 59.5755 99.5794 59.8802 99.5794 60.2266C99.5794 60.7578 99.3984 61.1849 99.0364 61.5078C98.677 61.8307 98.1861 61.9948 97.5638 62H95.388V56.3125H96.3763V58.4883ZM101.126 62H100.142V56.3125H101.126V62ZM96.3763 59.2812V61.2109H97.5364C97.8697 61.2109 98.1289 61.1211 98.3138 60.9414C98.5013 60.7591 98.595 60.5182 98.595 60.2188C98.595 59.9323 98.5039 59.7057 98.3216 59.5391C98.1393 59.3724 97.8867 59.2865 97.5638 59.2812H96.3763ZM106.411 57.1094H103.79V58.4883H104.954C105.371 58.4883 105.734 58.5599 106.044 58.7031C106.354 58.8464 106.589 59.0495 106.751 59.3125C106.912 59.5755 106.993 59.8802 106.993 60.2266C106.993 60.7578 106.812 61.1849 106.45 61.5078C106.091 61.8307 105.6 61.9948 104.977 62H102.802V56.3125H106.411V57.1094ZM103.79 59.2812V61.2109H104.95C105.283 61.2109 105.542 61.1211 105.727 60.9414C105.915 60.7591 106.009 60.5182 106.009 60.2188C106.009 59.9323 105.917 59.7057 105.735 59.5391C105.553 59.3724 105.3 59.2865 104.977 59.2812H103.79ZM112.868 59.3047C112.868 59.862 112.771 60.3516 112.578 60.7734C112.386 61.1927 112.11 61.5156 111.75 61.7422C111.394 61.9661 110.982 62.0781 110.516 62.0781C110.055 62.0781 109.644 61.9661 109.282 61.7422C108.922 61.5156 108.644 61.194 108.446 60.7773C108.25 60.3607 108.151 59.8802 108.149 59.3359V59.0156C108.149 58.4609 108.246 57.9714 108.442 57.5469C108.64 57.1224 108.917 56.7982 109.274 56.5742C109.633 56.3477 110.045 56.2344 110.508 56.2344C110.972 56.2344 111.382 56.3464 111.739 56.5703C112.098 56.7917 112.375 57.112 112.571 57.5312C112.766 57.9479 112.865 58.4336 112.868 58.9883V59.3047ZM111.879 59.0078C111.879 58.3776 111.759 57.8945 111.52 57.5586C111.283 57.2227 110.946 57.0547 110.508 57.0547C110.081 57.0547 109.746 57.2227 109.504 57.5586C109.265 57.8919 109.142 58.3646 109.137 58.9766V59.3047C109.137 59.9297 109.258 60.4128 109.5 60.7539C109.745 61.0951 110.084 61.2656 110.516 61.2656C110.953 61.2656 111.289 61.099 111.524 60.7656C111.761 60.4323 111.879 59.9453 111.879 59.3047V59.0078ZM115.32 59.8867V62H114.332V56.3125H116.508C117.143 56.3125 117.647 56.4779 118.019 56.8086C118.394 57.1393 118.582 57.5768 118.582 58.1211C118.582 58.6784 118.398 59.112 118.031 59.4219C117.667 59.7318 117.155 59.8867 116.496 59.8867H115.32ZM115.32 59.0938H116.508C116.859 59.0938 117.127 59.0117 117.312 58.8477C117.497 58.681 117.59 58.4414 117.59 58.1289C117.59 57.8216 117.496 57.5768 117.308 57.3945C117.121 57.2096 116.863 57.1146 116.535 57.1094H115.32V59.0938ZM122.417 60.6758H120.214L119.753 62H118.726L120.874 56.3125H121.761L123.913 62H122.882L122.417 60.6758ZM120.492 59.8789H122.14L121.316 57.5195L120.492 59.8789Z" fill="#FAF8F2"/>
</g>
<defs>
<filter id="filter0_d" x="0.483887" y="29.98" width="145.726" height="26.76" filterUnits="userSpaceOnUse" color-interpolation-filters="sRGB">
<feFlood flood-opacity="0" result="BackgroundImageFix"/>
<feColorMatrix in="SourceAlpha" type="matrix" values="0 0 0 0 0 0 0 0 0 0 0 0 0 0 0 0 0 0 127 0"/>
<feOffset dy="4"/>
<feGaussianBlur stdDeviation="2.25"/>
<feColorMatrix type="matrix" values="0 0 0 0 0 0 0 0 0 0 0 0 0 0 0 0 0 0 0.25 0"/>
<feBlend mode="normal" in2="BackgroundImageFix" result="effect1_dropShadow"/>
<feBlend mode="normal" in="SourceGraphic" in2="effect1_dropShadow" result="shape"/>
</filter>
<filter id="filter1_d" x="53.8198" y="0.600098" width="33.9" height="30.4" filterUnits="userSpaceOnUse" color-interpolation-filters="sRGB">
<feFlood flood-opacity="0" result="BackgroundImageFix"/>
<feColorMatrix in="SourceAlpha" type="matrix" values="0 0 0 0 0 0 0 0 0 0 0 0 0 0 0 0 0 0 127 0"/>
<feOffset dy="1"/>
<feGaussianBlur stdDeviation="4"/>
<feColorMatrix type="matrix" values="0 0 0 0 0 0 0 0 0 0 0 0 0 0 0 0 0 0 0.25 0"/>
<feBlend mode="normal" in2="BackgroundImageFix" result="effect1_dropShadow"/>
<feBlend mode="normal" in="SourceGraphic" in2="effect1_dropShadow" result="shape"/>
</filter>
<filter id="filter2_d" x="13.1758" y="49.2344" width="118.738" height="23.1641" filterUnits="userSpaceOnUse" color-interpolation-filters="sRGB">
<feFlood flood-opacity="0" result="BackgroundImageFix"/>
<feColorMatrix in="SourceAlpha" type="matrix" values="0 0 0 0 0 0 0 0 0 0 0 0 0 0 0 0 0 0 127 0"/>
<feOffset dy="1"/>
<feGaussianBlur stdDeviation="4"/>
<feColorMatrix type="matrix" values="0 0 0 0 0 0 0 0 0 0 0 0 0 0 0 0 0 0 0.25 0"/>
<feBlend mode="normal" in2="BackgroundImageFix" result="effect1_dropShadow"/>
<feBlend mode="normal" in="SourceGraphic" in2="effect1_dropShadow" result="shape"/>
</filter>
</defs>
</svg>
